<?xml version="1.0" encoding="utf-8"?>
<svg version="1.1" xmlns="http://www.w3.org/2000/svg" x="0px" y="0px" width="110px" height="110px" viewBox="0 0 110 110" enable-background="new 0 0 110 110" xml:space="preserve">
<path fill="#919191" d="M70.86,105H38.536c-2.803,0-5.075-2.272-5.075-5.075V96.22h42.474v3.705C75.935,102.728,73.663,105,70.86,105z"/>
<path fill="#60B2F0" d="M26.624,26.243c-0.112,3.4,1.009,4.184,1.009,6.202c0,2.018-1.793,5.156,0.56,7.173c2.354,2.018,8.07,14.123,10.312,14.01c-2.578,3.923-2.802,11.32-1.569,13.226c0.897,3.475,1.121,5.156-1.233,7.51c-2.354,2.354-3.362,5.492-4.371,9.863c-1.009,4.371-1.233,12.329,1.457,13.562c2.69,1.233,6.725-0.897,16.588,2.578s15.692,1.345,21.856,0c6.165-1.345,8.631-2.466,8.518-6.949c-0.112-4.483,1.569-11.545-2.018-13.338c5.94-3.25,6.053-9.975,4.259-11.545c-1.793-1.569-0.324-5.94-1.339-8.743c4.029-3.811,3.032-8.967,1.905-17.709c-1.127-8.743-3.481-21.52-9.757-27.236c-6.277-5.716-8.63-4.371-11.993-6.501s-4.285-3.545-6.404-3.103C52.287,5.686,26.624,26.243,26.624,26.243z"/>
<path fill="#BFBFBF" d="M60.81,8.347c-3.362-2.13-4.285-3.545-6.404-3.103c-2.119,0.442-27.782,20.999-27.782,20.999c-0.112,3.4,1.009,4.184,1.009,6.202c0,2.018-1.793,5.156,0.56,7.173c2.354,2.018,8.07,14.123,10.312,14.01c-2.578,3.923-2.802,11.32-1.569,13.226c0.897,3.475,1.121,5.156-1.233,7.51c-2.354,2.354-3.362,5.492-4.371,9.863c-0.554,2.402-0.868,5.883-0.595,8.74c0.173-1.257,0.583-2.595,1.156-3.92c2.13-4.932,0-4.035,2.914-9.145c2.914-5.11,9.079-2.063,12.665-0.494c3.587,1.569,2.017-0.897-1.681-3.25c-3.699-2.354-0.448-3.475,6.501-4.82c6.949-1.345,12.441-5.38,9.527-4.708c-2.914,0.673-19.278,1.121-21.856-2.13c-2.578-3.25-1.345-8.406,4.682-11.015s10.225,0.143,10.442-2.099s-11.425,1.009-14.9,0.897c-3.475-0.112-5.38-6.052-8.169-12.07s2.117-6.984,8.394-8.89c6.277-1.905,15.692-8.855,19.615-13.226c3.023-3.369,4.785-6.799,9.845-5.632C65.685,9.504,63.589,10.107,60.81,8.347z"/>
<path fill="#BFBFBF" d="M82.56,42.084c-1.068-8.285-3.243-20.182-8.809-26.271c1.112,3.554,1.763,8.859,3.087,15.623c2.018,10.312,6.502,16.908,4.372,22.439c-2.13,5.531-5.829,4.91-9.304,5.022c-3.475,0.112-0.448,1.905,3.923,2.914c4.371,1.009,1.233,5.268,2.69,7.061c1.457,1.793,3.362,3.362,0,7.397c-3.362,4.035-10.424,2.13-10.2,4.035c0.224,1.905,5.044,2.354,7.846,3.587s1.121,5.492,1.457,8.743c0.306,2.963-0.33,4.44-4.257,7.235c4.606-1.177,6.484-2.525,6.386-6.45c-0.112-4.483,1.569-11.545-2.018-13.338c5.94-3.25,6.053-9.975,4.259-11.545c-1.793-1.569-0.324-5.94-1.339-8.743C84.683,55.982,83.686,50.826,82.56,42.084z"/>
<path fill="#D4D4D4" d="M26.624,26.243c1.516,2.166,11.507-2.242,19.428-7.622c7.921-5.38,11.507-11.507,10.312-13.151c-1.196-1.644-7.323,1.046-17.336,7.771C29.015,19.966,25.578,24.748,26.624,26.243z"/>
<path fill="#B3B3B3" d="M39.551,13.988c9.292-6.241,15.231-9.001,16.994-8.052c-0.036-0.178-0.089-0.339-0.181-0.466c-1.195-1.644-7.323,1.046-17.336,7.771c-10.013,6.725-13.45,11.507-12.404,13.002c0.092,0.132,0.218,0.237,0.37,0.321C26.701,24.714,30.335,20.178,39.551,13.988z"/>
<path fill="#949494" d="M44.707,12.494c-6.617,4.911-4.681,7.676,1.674,3.026c3.906-2.857,6.115-5.1,5.778-6.143C51.797,8.258,48.479,9.694,44.707,12.494z"/>
</svg>
