<?xml version="1.0" encoding="utf-8"?>
<svg version="1.1" xmlns="http://www.w3.org/2000/svg" x="0px" y="0px" width="110px" height="110px" viewBox="0 0 110 110" enable-background="new 0 0 110 110" xml:space="preserve">
<path fill="#CFCFCF" d="M99.363,66.467L82.496,92.979c-1.921,3.02-5.659,4.905-9.727,4.905H37.581c-4.045,0-7.765-1.863-9.696-4.856L10.785,66.529c-2.817-4.366-4.293-9.256-4.293-14.225V15.145c0-1.673,1.611-3.03,3.598-3.03h89.869c1.987,0,3.598,1.356,3.598,3.03v37.252C103.556,57.307,102.116,62.14,99.363,66.467z"/>
<path fill="#B3B3B3" d="M76.699,94.43c-2.862,0.377-5.57-9.164,2.202-20.945s21.762-14.182,19.689-10.255C96.518,67.157,80.845,93.884,76.699,94.43z"/>
<path fill="#B3B3B3" d="M33.208,94.43c2.862,0.377,5.57-9.164-2.202-20.945S9.245,59.303,11.317,63.23C13.39,67.157,29.063,93.884,33.208,94.43z"/>
<path fill="#E3E3E3" d="M83.262,53.521h20.294c1.925,0,1.925-38.375,0-38.375L82.31,18.227c-2.693,0.39-4.661,2.357-4.661,4.659v25.908C77.649,51.404,80.162,53.521,83.262,53.521z"/>
<path fill="#E3E3E3" d="M26.786,53.521H6.492c-1.99,0-1.99-38.375,0-38.375l21.246,3.081c2.693,0.39,4.661,2.357,4.661,4.659v25.908C32.399,51.404,29.886,53.521,26.786,53.521z"/>
</svg>
