<?xml version="1.0" encoding="utf-8"?>
<svg version="1.1" xmlns="http://www.w3.org/2000/svg" x="0px" y="0px" width="110px" height="110px" viewBox="0 0 110 110" enable-background="new 0 0 110 110" xml:space="preserve">
<path fill="#CC2229" d="M68.314,55l35.955-35.955c0.976-0.976,0.976-2.559,0-3.536L94.49,5.732c-0.976-0.976-2.559-0.976-3.536,0L55,41.686L19.045,5.732c-0.976-0.976-2.559-0.976-3.536,0L5.732,15.51c-0.976,0.976-0.976,2.559,0,3.536L41.686,55L5.732,90.954c-0.976,0.976-0.976,2.559,0,3.536l9.778,9.778c0.976,0.976,2.559,0.976,3.536,0L55,68.314l35.955,35.955c0.976,0.976,2.559,0.976,3.536,0l9.778-9.778c0.976-0.976,0.976-2.559,0-3.536L68.314,55z"/>
</svg>
