<?xml version="1.0" encoding="utf-8"?>
<svg version="1.1" xmlns="http://www.w3.org/2000/svg" x="0px" y="0px" width="110px" height="110px" viewBox="0 0 110 110" style="enable-background:new 0 0 110 110;" xml:space="preserve">
<path fill="#A3D8FF" d="M78.013,15.779v-2.773H32.066v2.773c0,3.723-2.155,7.11-5.527,8.688l0,0c-3.794,1.775-6.148,5.658-5.967,9.843l2.69,62.316c0.21,4.874,4.223,8.717,9.101,8.717h45.354c4.878,0,8.891-3.843,9.101-8.717l2.69-62.316c0.181-4.185-2.173-8.068-5.967-9.843l0,0C80.168,22.889,78.013,19.502,78.013,15.779z"/>
<path fill="#E0E0E0" d="M83.54,24.467c-3-1.404-5.026-4.241-5.439-7.472l0,0c-0.051-0.401-0.088-0.806-0.088-1.217v-2.773h-4.112H32.066v2.773c0,0.411-0.036,0.816-0.088,1.217c0.096,0.016,0.192,0.029,0.292,0.029h41.72c0.422,3.218,2.446,6.043,5.437,7.442h0c3.794,1.775,6.148,5.658,5.967,9.843l-2.69,62.316c-0.21,4.874-4.223,8.717-9.101,8.717h4.112c4.878,0,8.891-3.843,9.101-8.717l2.69-62.316C89.688,30.125,87.334,26.242,83.54,24.467z"/>
<path fill="#6071D6" d="M77.954,16.278H32.125c-0.907,0-1.642-0.735-1.642-1.642V6.985c0-0.907,0.735-1.642,1.642-1.642h45.829c0.907,0,1.642,0.735,1.642,1.642v7.651C79.595,15.543,78.86,16.278,77.954,16.278z"/>
</svg>
