<?xml version="1.0" encoding="utf-8"?>
<svg version="1.1" xmlns="http://www.w3.org/2000/svg" x="0px" y="0px" width="110px" height="110px" viewBox="0 0 110 110" style="enable-background:new 0 0 110 110;" xml:space="preserve">
<path fill="#F7E3C3" d="M60.768,44.364c-1.376-8.255-5.045-17.428-3.44-23.62c1.605-6.192,8.086-9.868,1.291-14.336c-6.795-4.468-8.171,3.045-10.005,3.989c-1.835,0.944-5.984-5.511-10.396-0.279c-3.134,3.717-0.763,5.542,4.281,11.007c4.231,4.584,6.344,6.039,4.969,26.448c-6.65,19.492-5.274,37.15,0.459,44.259c5.733,7.109,27.977,6.65,21.097-3.44c-6.88-10.09-10.039-22.192-9.033-31.735C60.998,47.115,60.768,44.364,60.768,44.364z"/>
<path fill="#CC8362" d="M57.329,45.51c-1.003,3.05-2.975,4.586-4.354,2.293c-3.443-2.064-2.801-6.385-5.071-8.008c-3.187,4.11-1.353,3.881-4.334,8.008c-2.981,4.128-0.459,11.007-5.045,19.263c-4.586,8.255-5.045,25.454,2.523,32.563c7.568,7.109,19.951,6.65,26.372,1.605c6.421-5.045,8.714-4.586,6.65-8.714c-2.064-4.128,1.835-8.485-1.376-9.861c-3.21-1.376-7.769-1.399-7.769-1.399c1.119,6.902,0.201,8.966-3.927,6.902c-8.026,3.21-7.338-6.421-4.357-9.631c1.376-3.21,0.235-5.504-3.666-4.357c-3.901,1.147-7.57-2.293-7.341-7.338c0.229-5.045,4.586-4.816,4.586-4.816c-0.688-3.898-0.071-7.002,4.78-5.274c4.851,1.728,1.641,3.44,1.641,5.504c0.459,1.835,3.019,0.082,3.514,3.172c3.824-2.484,1.761-8.676,3.824-11.428c2.064-2.752,1.147-7.568-0.917-11.237c-2.064-3.669-3.645-4.728-3.771-5.249C56.564,36.872,59.24,39.701,57.329,45.51z"/>
</svg>
