<?xml version="1.0" encoding="utf-8"?>
<svg version="1.1" xmlns="http://www.w3.org/2000/svg" x="0px" y="0px" width="110px" height="110px" viewBox="0 0 110 110" style="enable-background:new 0 0 110 110;" xml:space="preserve">
<path fill="#DEA891" d="M12.986,25.607c5.59,3.594,5.99,7.587,5.59,15.573C18.177,49.166,5.399,53.958,5,59.948c0.399,14.774,2.795,15.174,13.976,17.969c2.396,2.795,7.587,16.771,22.76,17.57c4.792,0.399,3.594,9.583,14.774,8.785c11.181-0.799,17.969-13.177,17.969-13.177c3.594,2.396,12.778,2.795,19.566-5.99c6.788-8.785,11.979-11.58,0-18.368c-3.194-11.181,12.778-15.174,10.781-23.559c-1.996-8.385-7.587-14.354-7.587-14.354c3.194-6.01,2.795-8.007-3.594-13.198c-6.389-5.191-12.778-1.996-15.174-3.594c-6.788-9.184-11.756-6.389-18.656-3.993c-6.9,2.396-14.487,5.191-21.674,4.392C30.955,11.631,13.785,22.014,12.986,25.607z"/>
<path fill="#BABABA" d="M94.045,66.736c-3.194-11.181,12.778-15.174,10.781-23.559c-1.996-8.385-7.587-14.354-7.587-14.354c1.429-2.688,2.131-4.572,1.908-6.299c-0.05,0.137-0.094,0.277-0.161,0.407c-3.344,6.47-5.74,5.892-5.74,5.892c3.195,4.571,7.078,7.766,6.334,14.354c-0.744,6.589-9.928,8.787-10.127,15.973c-0.2,7.186,1.198,8.717,1.797,9.05c6.389,4.126,6.809,3.892,3.394,11.913c-3.008,7.066-8.549,10.815-15.931,12.362c4.386,0.491,10.469-1.077,15.332-7.37C100.834,76.319,106.025,73.524,94.045,66.736z"/>
<path fill="#BABABA" d="M59.816,8.038c-6.9,2.396-14.487,5.191-21.674,4.392c-7.188-0.799-24.358,9.583-25.156,13.177c5.194,3.339,5.905,7.028,5.66,13.938c2.376-3.299,2.588-9.588,0.263-12.341c-2.529-2.995,2.662-5.99,10.648-9.184c7.986-3.194,11.18-2.396,14.774-2.196c1.996-0.599,3.194-2.795,13.177-3.993c9.598-1.152,9.033-7.067,19.909-1.135C71.159,3.158,66.353,5.768,59.816,8.038z"/>
<path fill="#BABABA" d="M45.463,16.823c6.389,5.59,5.857,5.058,3.727,9.85C47.06,31.464,55,39.45,55,39.45c-9.271,7.188-19.653,6.389-23.113,4.792c1.065,3.461,6.609,6.123,14.219,3.194s15.596-8.252,11.603-10.648c-3.993-2.396-7.72-9.051-3.993-14.109C54.78,19.218,45.463,16.823,45.463,16.823z"/>
<path fill="#BABABA" d="M88.854,30.931c-8.519,4.526-10.914,9.85-11.979,9.583c-4.792-2.662-5.857-5.857-9.317-2.396s-15,5.324-12.558,12.778s7.766,8.519,7.766,8.519c-5.058-6.389-7.72-11.447,0.266-15.041c7.986-3.594,7.986-5.99,12.512-2.795c2.662,0.799,2.98,1.719,6.548-2.202C85.66,35.457,88.854,30.931,88.854,30.931z"/>
<path fill="#BABABA" d="M19.907,72.193c4.259-8.252,10.382-3.727,6.123-10.116c-4.259-6.389-0.532-23.426-1.065-16.904s1.597,15.041,6.921,17.702c5.324,2.662,10.914,2.662,9.849-1.597c-1.065-4.259-6.123-5.37-5.058-6.279c5.59-1.175,7.72,6.013,7.587,8.941c-0.133,2.928,4.659,2.662,4.393,4.259c-6.921,0-7.454,0.532-12.246-1.065c-4.792-1.597-7.054-0.399-10.382,1.065C22.703,69.664,21.638,72.06,19.907,72.193z"/>
<path fill="#BABABA" d="M88.322,68.2c-12.778,0.532-16.563,6.123-16.563,6.123c-7.928-3.993-16.713-6.389-19.907-3.061c-3.194,3.328,1.63,9.184,2.812,10.249c-7.337,4.525-8.136,12.245-7.869,13.044c3.461-5.324,7.453-11.447,11.979-11.181c-3.993-6.123-10.467-11.324-1.597-11.447c8.87-0.123,12.927,6.123,15.382,5.59S77.408,71.661,88.322,68.2z"/>
<path fill="#BABABA" d="M18.976,77.916c1.802,2.103,5.19,10.53,13.216,14.917c-2.379-2.143-4.499-5.066-4.705-8.705c-0.474-8.362,8.859-8.608,4.4-11.936c-4.459-3.328-6.921,4.326-11.913,2.329c-4.991-1.997,1.597-4.875-2.196-6.322c-2.152,2.703-4.731,2.519-12.029,0.217C7.092,75.047,10.519,75.802,18.976,77.916z"/>
<path fill="#BABABA" d="M81.068,81.976c-2.396-4.725-6.988,3.527-11.979-1.464c-4.991-4.991-10.382-5.391-7.582,0.865c2.801,6.256-0.205,6.522-0.005,12.112c0.2,5.59-5.191,6.589-9.783,4.193c-3.248-1.695-4.309-1.093-7.402-0.737c2.312,2.657,3.592,7.939,12.194,7.325c11.181-0.799,17.969-13.177,17.969-13.177C79.071,89.297,83.464,86.701,81.068,81.976z"/>
</svg>
