<?xml version="1.0" encoding="utf-8"?>
<svg version="1.1" xmlns="http://www.w3.org/2000/svg" x="0px" y="0px" width="110px" height="110px" viewBox="0 0 110 110" style="enable-background:new 0 0 110 110;" xml:space="preserve">
<path fill="#B8785C" d="M42.39,92.123c9.219,3.201,31.241,10.499,34.058,9.347c2.817-1.152,10.115-21.126,16.005-33.802c5.89-12.676,12.035-30.985,12.548-37.387c-1.921,2.049-4.737,1.921-4.481,0c-1.408-0.384-1.408,1.793-2.433,0c-1.024-1.793-1.793-0.64-2.177-2.433c-1.28-0.896-3.201,0.768-3.201-0.896s-0.353-1.316-2.161-0.85C87.587,28.745,42.39,92.123,42.39,92.123z"/>
<path fill="#D48B6A" d="M24.853,8.565C19.987,31.1,4.747,77.783,5.003,81.368c0.256,3.585,11.779,4.609,25.095,8.45c13.316,3.841,27.149,8.643,34.331,9.369c2.417,0.245,13.811-31.543,19.188-46.448c5.378-14.905,7.324-24.763,6.93-26.638c-2.352,0.242-2.256-1.454-3.985-0.302c-1.729,1.152-0.64-2.689-4.017-1.742c-1.966,0.551-1.361-2.099-4.522-0.429c-1.748,0.924-1.635-2.69-4.137-1.222c-2.945,1.728-1.962-1.278-4.225-0.384c-2.433,0.96-1.216-1.793-3.777-0.896c-1.416,0.496-0.96-2.305-3.137-1.024c-1.06,0.623-1.62-2.518-3.649-1.729c-2.305,0.896-3.254-2.158-4.225-1.152c-1.793,1.857-3.265,0.576-4.225,0.768c-0.96,0.192-1.536-2.689-2.305-1.729c-0.768,0.96-3.265,0-4.033,1.152c-0.768,1.152-2.305-2.689-3.073-0.768c-0.768,1.92-4.225,0.384-4.417,1.152c-0.192,0.768-0.192-3.265-1.729-3.073c-1.536,0.192-1.536-3.649-3.073-2.689c-1.537,0.96-2.305-1.729-3.649-0.768C27.025,12.228,25.086,7.501,24.853,8.565z"/>
<path fill="#FFFFFF" d="M34.708,33.921c-1.411,0.282-5.924,14.557-5.588,15.661c0.429,1.409,31.323,10.061,32.667,9.51c1.344-0.551,5.57-15.175,4.993-16.136C66.205,41.996,36.308,33.601,34.708,33.921z"/>
</svg>
