<?xml version="1.0" encoding="utf-8"?>
<svg version="1.1" xmlns="http://www.w3.org/2000/svg" x="0px" y="0px" width="110px" height="110px" viewBox="0 0 110 110" style="enable-background:new 0 0 110 110;" xml:space="preserve">
<path fill="#A0C4BF" d="M91.239,12.823c-4.155-1.484-15.211,21.171-16.917,25.252c-0.893,2.137,16.734,6.035,16.917,4.526C92.308,33.784,95.395,14.307,91.239,12.823z M87.579,38.644c-0.717,1.063-7.519-0.989-7.717-2.572c-0.198-1.583,7.832-15.954,9.198-15.694C90.943,20.738,88.142,37.81,87.579,38.644z"/>
<path fill="#AED6D0" d="M91.239,42.601c-0.594-0.989-20.38-6.925-32.251-10.091c-1.357-0.365,6.134-25.128,0.989-27.305c-5.144-2.176-12.07,13.455-17.412,22.556c-5.342,9.102-13.652,16.422-22.754,36.407c-9.102,19.984,2.77,27.898,18.995,32.647c16.225,4.749,31.856,11.674,42.738,6.134C92.427,97.409,95.197,66.543,91.239,42.601z M54.14,30.581c-1.187,1.336-8.013-0.742-7.123-3.858c0.89-3.116,9.201-16.027,10.685-14.691C58.748,12.973,55.328,29.246,54.14,30.581z"/>
<path fill="#E8E8E8" d="M81.89,48.982c-3.423,3.701-8.459,12.317-10.388,15.136c-1.929,2.82-0.89,0.594-0.89-7.568s-5.434-18.253-6.084-20.479c-0.65-2.226,7.271,1.131,8.459,3.459c1.187,2.328,1.781,2.625-1.484,2.625c-3.265,0,1.187,9.349,1.632,10.388c0.445,1.039,2.82-1.781,2.82-5.787c0-4.007,0.148-5.704,2.226-3.074s2.078-1.887,4.452-0.742C85.007,44.085,87.381,43.046,81.89,48.982z"/>
<path fill="#E8E8E8" d="M60.903,41.859c-0.713,3.439-2.162,13.356-5.278,16.917c-3.116,3.562-17.066,12.02-18.698,13.059c-1.632,1.039-4.6-3.192-3.413-5.158c1.187-1.965,2.226,1.696,6.233-0.357c4.007-2.053,3.116-6.789,3.71-10.134c0.594-3.346,3.858-8.391,5.787-3.939c1.929,4.452,4.816,4.007,5.598-1.336c0.783-5.342-3.384-7.353-0.04-9.39C58.147,39.485,62.357,34.844,60.903,41.859z"/>
<path fill="#E8E8E8" d="M81.544,102.949c10.528-5.36,13.463-34.424,10.06-57.989c-0.02,10.049-2.944,22.869-5.113,28.508c0,7.717-2.374,13.356-5.045,14.84c-2.671,1.484-5.194,6.826-13.652,8.013c-8.459,1.187-13.949,3.561-26.266-0.297C29.21,92.166,28.242,90.797,22.938,83.32c-4.691-6.614-5.114-11.214-1.966-21.636c-0.386,0.809-0.773,1.631-1.161,2.485c-9.102,19.984,2.77,27.898,18.995,32.647C55.031,101.564,70.662,108.489,81.544,102.949z"/>
<path fill="#E8E8E8" d="M66.902,68.867c2.226,2.523,1.187,3.82-4.155,6.381c-7.604,3.646-10.87,5.815-7.797,0.297C59.779,66.875,62.945,64.382,66.902,68.867z"/>
</svg>
