<?xml version="1.0" encoding="utf-8"?>
<svg version="1.1" xmlns="http://www.w3.org/2000/svg" x="0px" y="0px" width="110px" height="110px" viewBox="0 0 110 110" enable-background="new 0 0 110 110" xml:space="preserve">
<path fill="#ABABAB" d="M28.465,66.76c-1.772-4.134-2.362-7.185-6.201-6.89c2.756-5.512-0.591-9.252-3.248-9.252c3.15-2.756,3.15-8.071-1.083-8.661c4.724-3.248,4.117-7.691,0.869-8.577c4.15-2.25,5.676-7.073,3.314-10.026c5.315-0.295,7.923-2.756,6.348-6.791c4.134,1.476,9.055-3.051,7.972-6.988c6.102,2.756,10.138-0.984,10.728-4.232c3.839,5.61,9.646,1.772,10.236,0c6.496,5.413,11.811,2.067,12.992,0c2.264,4.921,7.48,4.724,9.154,3.543c3.839,5.807,8.661,2.953,8.661,2.953c-0.689,7.382,4.035,7.677,4.035,7.677c-3.839,6.496,1.772,8.563,4.724,8.563c-6.496,3.248-3.839,10.039,0,10.925c-3.839,2.362-6.093,6.791-3.489,10.039c-2.712,1.181-4.778,4.724-2.416,8.268c-6.791-1.181-7.973,2.658-7.087,4.429c-7.382-1.476-5.61,9.449-5.61,9.449c-10.335-5.02-15.354,0.591-15.65,1.476c-4.429-2.067-17.717-1.181-18.602,0C38.504,66.465,28.465,66.76,28.465,66.76z"/>
<path fill="#8F8F8F" d="M82.473,39.015c-0.271,4.695-1.67,8.947-4.626,12.671c-3.141,3.956-7.574,6.759-12.432,8.091c-9.38,2.573-19.961-0.301-27.039-6.904c-3.617-3.374-6.233-7.791-6.807-12.759c-0.6-5.191,1.27-10.218,4.603-14.149c6.238-7.359,16.512-10.04,25.798-8.659c5.719,0.85,11.119,3.622,14.997,7.931C80.462,29.12,82.255,33.839,82.473,39.015z M82.133,39.004c-0.326-4.155-1.644-7.758-4.576-10.814c-3.362-3.504-7.94-5.635-12.601-6.789c-7.901-1.956-16.866-0.779-23.607,4.02c-3.979,2.833-7.033,7.107-7.832,11.982c-0.819,4.995,1.037,9.924,4.419,13.581c6.014,6.501,15.845,7.889,24.21,6.399c5.193-0.925,10.478-2.986,14.425-6.567C80.091,47.626,81.815,43.643,82.133,39.004z"/>
<ellipse fill="#8F8F8F" cx="56.965" cy="38.834" rx="11.122" ry="8.465"/>
<path fill="#878787" d="M90.913,105.343H13.851c-0.409,0-0.74-0.331-0.74-0.74V64.942c0-0.409,0.331-0.74,0.74-0.74h77.063c0.409,0,0.74,0.331,0.74,0.74v39.661C91.654,105.011,91.322,105.343,90.913,105.343z"/>
<rect x="13.11" y="72.666" fill="#77D981" width="78.543" height="24.213"/>
<path fill="#B0B0B0" d="M68.087,81.094c0,3.01-7.032,5.45-15.705,5.45s-15.705-2.44-15.705-5.45c0-3.01,7.032-5.45,15.705-5.45S68.087,78.083,68.087,81.094z"/>
<path fill="#B0B0B0" d="M71.476,93.212H33.287c-1.25,0-2.264-1.013-2.264-2.264l0,0c0-1.25,1.013-2.264,2.264-2.264h38.189c1.25,0,2.264,1.013,2.264,2.264l0,0C73.74,92.199,72.727,93.212,71.476,93.212z"/>
</svg>
