<?xml version="1.0" encoding="utf-8"?>
<svg version="1.1" xmlns="http://www.w3.org/2000/svg" x="0px" y="0px" width="110px" height="110px" viewBox="0 0 110 110" style="enable-background:new 0 0 110 110;" xml:space="preserve">
<path fill="#DBDBDB" d="M37.752,77.089c-0.006-0.236-0.38-23.676,14.732-30.469c13.611-6.117,17.455-15.949,18.535-21.266l0.819-4.029l0.744,0.151l-0.819,4.029c-1.109,5.459-5.048,15.551-18.968,21.807C38.143,53.899,38.505,76.84,38.51,77.071L37.752,77.089z"/>
<path fill="#FAF07D" d="M79.25,20.978l-7.859,4.453l-5.498-7.167c-0.308-0.401-0.427-0.916-0.326-1.412l2.228-10.965c0.122-0.599,0.706-0.986,1.305-0.864l12.365,2.512c0.599,0.122,0.986,0.706,0.864,1.305l-2.228,10.965C80.001,20.3,79.691,20.728,79.25,20.978z"/>
<path fill="#DBDBDB" d="M29.039,82.739l8.749-5.768c0.221-0.146,0.508-0.146,0.729,0l9.526,6.293c0.517,0.545,0.802,1.322,0.779,2.131l-0.495,17.878c-0.027,0.977-0.74,1.749-1.592,1.726l-17.593-0.487c-0.852-0.024-1.521-0.834-1.494-1.811l0.495-17.878C28.166,84.015,28.492,83.255,29.039,82.739z"/>
</svg>
