<?xml version="1.0" encoding="utf-8"?>
<svg version="1.1" xmlns="http://www.w3.org/2000/svg" x="0px" y="0px" width="110px" height="110px" viewBox="0 0 110 110" style="enable-background:new 0 0 110 110;" xml:space="preserve">
<path fill="#D4D4D4" d="M102.059,81.451l-49.861,1.327l-22.607-61.8l64.004,3.097c0,0,5.653,10.751,2.262,16.667c-4.228,7.375,5.021,10.39,2.262,14.946c-4.228,6.981,6.69,9.736,6.481,11.761c-5.851,7.079,2.009,6.857,0.091,8.234C101.958,77.646,102.059,81.451,102.059,81.451z"/>
<path fill="#E8E8E8" d="M52.198,82.925c0,2.753-11.799,6.096-23.598,6.096c-11.8,0-23.6-3.343-23.6-6.096V27.763c0,5.703,47.198,5.703,47.198,0V82.925z"/>
<path fill="#C7C7C7" d="M52.198,27.763c0,3.747-10.566,6.785-23.599,6.785C15.566,34.548,5,31.51,5,27.763s10.566-6.785,23.599-6.785C41.632,20.978,52.198,24.016,52.198,27.763z"/>
<ellipse fill="#A8A8A8" cx="28.599" cy="27.763" rx="8.063" ry="1.77"/>
</svg>
